# xmcd
#
# Track frame offsets: 
#        150
#        36199
#        46325
#        63973
#        90767
#        117184
#        132484
#        153774
#
# Disc length: 2362 seconds
#
# Revision: 0
# Processed by: cddbd v1.5.2PL0 Copyright (c) Steve Scherf et al.
# Submitted via: ExactAudioCopy v1.0b3
#
DISCID=5a093808
DTITLE=Jimmy Smith - The Best Of Jimmy Smith
DYEAR=1900
DGENRE=Blues
TTITLE0=Got My Mojo Workin'
TTITLE1=The Organ Grinders Swing
TTITLE2=Ol' Man River
TTITLE3=I'm Your Hoochie Cooche Man
TTITLE4=Walk On The Wild Side
TTITLE5=The Cat
TTITLE6=Hobo Flats
TTITLE7=High Heel Sneakers
EXTD=
EXTT0=
EXTT1=
EXTT2=
EXTT3=
EXTT4=
EXTT5=
EXTT6=
EXTT7=
PLAYORDER=
